<?xml version="1.0" encoding="UTF-8"?> <svg xmlns="http://www.w3.org/2000/svg" width="271" height="39" viewBox="0 0 271 39" fill="none"><g clip-path="url(#clip0_4_39)"><path d="M39.4698 30.0464H45.6611C45.7119 31.7499 47.2121 32.8814 50.1997 32.8814C53.3525 32.8814 54.6874 31.5974 54.6874 30.0464C54.6874 28.0886 52.4117 27.8343 49.6784 27.4656C45.7628 26.9444 39.9784 26.2833 39.9784 20.0412C39.9784 14.8289 43.9448 11.4218 50.0852 11.4218C56.2256 11.4218 60.1413 14.9306 60.2938 19.4183H54.2043C54.0517 17.8673 52.6024 16.7867 50.1742 16.7867C47.4918 16.7867 46.1442 18.0834 46.1442 19.5708C46.1442 21.5286 48.4707 21.8465 51.204 22.2024C54.6111 22.6728 60.8532 23.3339 60.8532 29.6904C60.8532 34.8519 56.6706 38.259 50.1742 38.259C43.6779 38.259 39.597 34.8011 39.4444 30.0591L39.4698 30.0464Z" fill="#393F52"></path><path d="M64.1205 0.946167H70.2609V23.2322L80.3678 12.0828H88.2117L76.2487 24.567L88.6821 37.5725H80.6856L70.2609 26.0672V37.5725H64.1205V0.946167Z" fill="#393F52"></path><path d="M90.7925 4.72195C90.7925 2.34461 92.496 0.59021 94.8734 0.59021C97.2507 0.59021 98.9542 2.34461 98.9542 4.72195C98.9542 7.0993 97.2507 8.80285 94.8734 8.80285C92.496 8.80285 90.7925 7.0993 90.7925 4.72195ZM91.7714 12.0955H97.9118V37.5852H91.7714V12.0955Z" fill="#393F52"></path><path d="M103.684 0.946167H109.824V37.5725H103.684V0.946167Z" fill="#393F52"></path><path d="M115.596 0.946167H121.736V37.5725H115.596V0.946167Z" fill="#393F52"></path><path d="M126.643 24.6306V0.946167H132.784V15.8077C134.589 12.9727 137.627 11.4217 141.301 11.4217C147.493 11.4217 153.989 15.8586 153.989 24.5797C153.989 32.678 148.306 38.2463 140.208 38.2463C132.11 38.2463 126.643 32.8814 126.643 24.6306ZM147.785 24.834C147.785 20.3463 144.747 17.1426 140.246 17.1426C135.746 17.1426 132.771 20.3463 132.771 24.834C132.771 29.3217 135.759 32.5254 140.246 32.5254C144.734 32.5254 147.785 29.3217 147.785 24.834Z" fill="#393F52"></path><path d="M155.934 24.834C155.934 17.0918 161.604 11.4218 169.652 11.4218C177.699 11.4218 183.267 17.0918 183.267 24.834V26.9953H162.367C163.193 30.7075 166.028 32.6653 169.639 32.6653C172.372 32.6653 174.381 31.8898 175.678 30.2371H182.225C180.318 35.0808 175.678 38.2336 169.639 38.2336C161.592 38.2336 155.921 32.5636 155.921 24.8213L155.934 24.834ZM176.784 22.1007C175.805 18.6936 173.021 16.9901 169.664 16.9901C166.308 16.9901 163.524 18.7445 162.545 22.1007H176.784Z" fill="#393F52"></path><path d="M186.268 24.3255C186.268 15.8078 191.327 11.4218 198.853 11.4218C206.38 11.4218 211.439 15.7569 211.439 24.3255V37.5852H205.299V24.3255C205.299 19.4691 202.718 17.1553 198.853 17.1553C194.989 17.1553 192.408 19.4818 192.408 24.3255V37.5852H186.268V24.3255Z" fill="#393F52"></path><path d="M214.427 24.834C214.427 17.0918 220.097 11.4218 228.144 11.4218C235.06 11.4218 240.12 15.6043 241.353 21.6303H235.162C234.081 18.897 231.501 17.1426 228.144 17.1426C223.657 17.1426 220.606 20.3463 220.606 24.834C220.606 29.3217 223.657 32.5254 228.144 32.5254C231.501 32.5254 234.081 30.771 235.162 28.0377H241.353C240.12 34.0764 235.06 38.2463 228.144 38.2463C220.097 38.2463 214.427 32.5763 214.427 24.834Z" fill="#393F52"></path><path d="M245.18 0.946167H251.32V15.6552C253.024 12.9219 255.655 11.4217 258.897 11.4217C264.783 11.4217 270.352 15.2356 270.352 24.3255V37.5852H264.211V24.3255C264.211 19.4691 261.631 17.1553 257.766 17.1553C253.901 17.1553 251.32 19.5835 251.32 24.3255V37.5852H245.18V0.946167Z" fill="#393F52"></path><path d="M13.8784 1.17506C12.836 0.844516 11.7045 0.666533 10.5349 0.666533C4.91573 0.65382 0.351746 4.74743 0.351746 9.80723C0.351746 14.867 4.91573 18.9479 10.5349 18.9479C11.7045 18.9479 12.8233 18.7572 13.8784 18.4394V1.17506Z" fill="#393F52"></path><path d="M6.84812 35.602C10.436 35.602 13.3445 32.6935 13.3445 29.1056C13.3445 25.5178 10.436 22.6093 6.84812 22.6093C3.26027 22.6093 0.351746 25.5178 0.351746 29.1056C0.351746 32.6935 3.26027 35.602 6.84812 35.602Z" fill="url(#paint0_linear_4_39)"></path><path d="M23.5404 16.2528C27.1282 16.2528 30.0367 13.3442 30.0367 9.75638C30.0367 6.16854 27.1282 3.26001 23.5404 3.26001C19.9525 3.26001 17.044 6.16854 17.044 9.75638C17.044 13.3442 19.9525 16.2528 23.5404 16.2528Z" fill="url(#paint1_linear_4_39)"></path><path d="M16.5228 37.7378C17.5652 38.0684 18.6967 38.2463 19.8663 38.2463C25.4855 38.2463 30.0495 34.1527 30.0495 29.1057C30.0495 24.0586 25.4855 19.965 19.8663 19.965C18.6967 19.965 17.5779 20.1557 16.5228 20.4735V37.7378Z" fill="#393F52"></path></g><defs><linearGradient id="paint0_linear_4_39" x1="0.351746" y1="29.1056" x2="13.3445" y2="29.1056" gradientUnits="userSpaceOnUse"><stop offset="0.16" stop-color="#39C0F0"></stop><stop offset="0.24" stop-color="#36BEE1"></stop><stop offset="0.59" stop-color="#2BB8AD"></stop><stop offset="0.86" stop-color="#24B58C"></stop><stop offset="1" stop-color="#22B480"></stop></linearGradient><linearGradient id="paint1_linear_4_39" x1="17.044" y1="9.75638" x2="30.0367" y2="9.75638" gradientUnits="userSpaceOnUse"><stop offset="0.16" stop-color="#39C0F0"></stop><stop offset="0.24" stop-color="#36BEE1"></stop><stop offset="0.59" stop-color="#2BB8AD"></stop><stop offset="0.86" stop-color="#24B58C"></stop><stop offset="1" stop-color="#22B480"></stop></linearGradient><clipPath id="clip0_4_39"><rect width="270" height="37.6688" fill="white" transform="translate(0.351746 0.59021)"></rect></clipPath></defs></svg> 